<?xml version="1.0" encoding="utf-8"?>
<!-- Generator: Adobe Illustrator 26.1.0, SVG Export Plug-In . SVG Version: 6.00 Build 0)  -->
<svg version="1.1" id="Layer_1" xmlns="http://www.w3.org/2000/svg" xmlns:xlink="http://www.w3.org/1999/xlink" x="0px" y="0px"
	 viewBox="0 0 1080 1080" style="enable-background:new 0 0 1080 1080;" xml:space="preserve">
<style type="text/css">
	.st0{fill:#618BE0;}
</style>
<path class="st0" d="M938.5,2.2V0L651.1,339.7V159.2c-114.5,0-221,62.3-221,204.9v174.4h-0.3v16.4h0.3v45.9l-69.2,81.8V288.6
	c-114.5,0-221,62.3-221,204.9V1080c114.5,0,221-62.3,221-204.9v-56.3l68.9-81.5v213.3c114.5,0,221-62.3,221-204.9V554.9h0.3v-79
	l68-80.4v420.5c114.5,0,221-62.3,221-204.9V0L938.5,2.2z"/>
</svg>
