<?xml version="1.0" encoding="utf-8"?>
<!-- Generator: Adobe Illustrator 24.1.3, SVG Export Plug-In . SVG Version: 6.00 Build 0)  -->
<svg version="1.1" id="Layer_1" xmlns="http://www.w3.org/2000/svg" xmlns:xlink="http://www.w3.org/1999/xlink" x="0px" y="0px"
	 viewBox="0 0 1360.7 350" style="enable-background:new 0 0 1360.7 350;" xml:space="preserve">
<style type="text/css">
	.st0{fill:#618BE0;}
</style>
<g>
	<path class="st0" d="M210.5,33.7v-0.6L135,122.4V74.9c-30.1,0-58.1,16.4-58.1,53.8c0,13.4,0,31.5,0,45.8h-0.1v4.3h0.1
		c0,4.7,0,8.9,0,12.1l-18.2,21.5V108.9c-30.1,0-58.1,16.4-58.1,53.8s0,50.2,0,50.2V258v23v21.4v14.4c30.1,0,58.1-16.4,58.1-53.8
		c0-5.4,0-10.4,0-14.8l18.1-21.4V283c30.1,0,58.1-16.4,58.1-53.8s0-50.2,0-50.2h0.1v-20.8l17.9-21.1v31.8v78.7
		c30.1,0,58.1-16.4,58.1-53.8c0-15.1,0-34.6,0-52.3v-34.7c0-1.5,0-3,0-4.3c0-6,0-9.5,0-9.5V33.1L210.5,33.7z"/>
	<g>
		<path class="st0" d="M280,122.8h20.3v47.3h51.1v-47.3h20.3v111.5h-20.3v-46.8h-51.1v46.8H280V122.8z"/>
		<path class="st0" d="M430.8,152.4c23.1,0,35.5,16.8,35.5,38c0,2.4-0.5,7.7-0.5,7.7h-55.3c1.3,14,12.1,21.2,24,21.2
			c12.9,0,23.1-8.8,23.1-8.8l7.7,14.3c0,0-12.3,11.5-32.2,11.5c-26.5,0-43-19.2-43-41.9C390.2,169.6,407,152.4,430.8,152.4z
			 M446.2,184.4c-0.3-10.8-7.1-16.7-15.9-16.7c-10.2,0-17.3,6.3-19.2,16.7H446.2z"/>
		<path class="st0" d="M522.6,184.1h2.7V183c0-10.5-6.6-14.1-15.4-14.1c-11.5,0-22,7.7-22,7.7l-7.5-14.3c0,0,12.4-9.9,31.4-9.9
			c21,0,33.3,11.6,33.3,31.9v50.1h-18.4v-6.6c0-3.1,0.3-5.7,0.3-5.7h-0.3c0.2,0-6.1,14.1-24.3,14.1c-14.3,0-27.2-9-27.2-25
			C475.1,185.8,509.6,184.1,522.6,184.1z M507.4,220.7c10.5,0,18.1-11.3,18.1-21v-1.9H522c-10.2,0-26.7,1.4-26.7,12.6
			C495.3,215.7,499.2,220.7,507.4,220.7z"/>
		<path class="st0" d="M595.6,152.4c17.6,0,23.1,10.2,23.1,10.2h0.3c0,0-0.2-2-0.2-4.6v-35.2h20v111.5H620v-6.6c0-3,0.3-5.2,0.3-5.2
			H620c0,0-6.8,13.7-25.1,13.7c-21.7,0-35.5-17.1-35.5-41.9C559.4,168.8,574.4,152.4,595.6,152.4z M599.4,219.4
			c10.4,0,20.1-7.5,20.1-25.3c0-12.4-6.6-24.7-20-24.7c-11,0-20.1,9-20.1,24.8C579.5,209.5,587.6,219.4,599.4,219.4z"/>
		<path class="st0" d="M658.8,122.8h19.8v83.6c0,8.8,3,11,8.2,11c1.6,0,3-0.2,3-0.2v17.4c0,0-3,0.5-6.3,0.5
			c-11,0-24.7-2.8-24.7-25.8V122.8z"/>
		<path class="st0" d="M703.6,122.8h19.8v17.8h-19.8V122.8z M703.6,154.2h20v80.1h-20V154.2z"/>
		<path class="st0" d="M744.6,154.2h19.2v9.3c0,3-0.3,5.5-0.3,5.5h0.3c3.5-6.8,12.3-16.7,28.4-16.7c17.8,0,27.8,9.3,27.8,30.5v51.5
			h-19.8v-47.4c0-9.7-2.5-16.3-12.7-16.3c-10.7,0-18.5,6.8-21.5,16.3c-1.1,3.3-1.4,6.9-1.4,10.7v36.8h-20V154.2z"/>
		<path class="st0" d="M874.9,152.4c23.1,0,35.5,16.8,35.5,38c0,2.4-0.5,7.7-0.5,7.7h-55.3c1.3,14,12.1,21.2,24,21.2
			c12.9,0,23.1-8.8,23.1-8.8l7.7,14.3c0,0-12.3,11.5-32.2,11.5c-26.5,0-43-19.2-43-41.9C834.3,169.6,851.1,152.4,874.9,152.4z
			 M890.3,184.4c-0.3-10.8-7.1-16.7-15.9-16.7c-10.2,0-17.3,6.3-19.2,16.7H890.3z"/>
		<path class="st0" d="M934.6,217.4c0,0,11.2,12.3,29.4,12.3c13.7,0,24.5-8.5,24.5-21.7c0-31.3-56.2-22.6-56.2-57
			c0-14.6,13-28.4,33-28.4c17.9,0,28,10.2,28,10.2l-3.8,5.8c0,0-9.4-9.4-24-9.4c-16.3,0-26.1,11-26.1,21.7
			c0,29.1,56.2,20.1,56.2,56.9c0,15.9-12.3,28.6-31.9,28.6c-21.7,0-33.6-13.7-33.6-13.7L934.6,217.4z"/>
		<path class="st0" d="M1020.9,162.2h-10.4v-6h10.4V134h6.6v22.3h20.6v6h-20.6v43.2c0,20.7,12.4,23.4,18.7,23.4
			c2.2,0,3.6-0.3,3.6-0.3v6.1c0,0-1.6,0.3-3.9,0.3c-8.2,0-25-3-25-29.1L1020.9,162.2L1020.9,162.2z"/>
		<path class="st0" d="M1066.6,155.8h6.6v47.4c0,13.7,1.7,26.5,19.3,26.5c19.6,0,32.2-17.3,32.2-35.7v-38.3h6.6v78.5h-6.6v-13.8
			c0-3.6,0.6-6.4,0.6-6.4h-0.3c-2.7,7.4-13.5,22.2-32.5,22.2c-19.3,0-25.9-10.7-25.9-30.6L1066.6,155.8L1066.6,155.8z"/>
		<path class="st0" d="M1189,153.9c19.8,0,27.2,17.8,27.2,17.8h0.3c0,0-0.6-2.8-0.6-6.4v-40.8h6.6v110h-6.6v-9.9c0-3.6,0.6-6,0.6-6
			h-0.3c0,0-6.8,17.8-28.4,17.8c-21,0-33.9-16.8-33.9-41.2C1153.8,170.1,1168.4,153.9,1189,153.9z M1188,229.8
			c14.5,0,28-10.2,28-34.9c0-17.4-9-34.6-27.3-34.6c-15.4,0-28,12.7-28,34.7C1160.7,216.3,1172,229.8,1188,229.8z"/>
		<path class="st0" d="M1249.5,124.4h7.9v11.5h-7.9V124.4z M1250.1,155.8h6.6v78.5h-6.6V155.8z"/>
		<path class="st0" d="M1319.2,153.9c22.5,0,40.7,17.8,40.7,40.7c0,23.4-18.2,41.6-40.7,41.6s-40.7-18.2-40.7-41.6
			C1278.5,171.7,1296.7,153.9,1319.2,153.9z M1319.2,229.8c18.7,0,33.8-15.2,33.8-35.2c0-19.5-15.1-34.2-33.8-34.2
			c-18.7,0-33.8,14.8-33.8,34.2C1285.4,214.6,1300.5,229.8,1319.2,229.8z"/>
	</g>
</g>
</svg>
